<svg width="56" height="56" viewBox="0 0 56 56" fill="none" xmlns="http://www.w3.org/2000/svg">
<path d="M21 15.75C21 12.8497 23.3497 10.5 26.25 10.5C29.1503 10.5 31.5 12.8497 31.5 15.75C31.5 18.6503 29.1503 21 26.25 21C23.3497 21 21 18.6503 21 15.75Z" fill="#F3AC29" fill-opacity="0.2"/>
<path d="M40.25 22.75C40.25 19.8497 42.5997 17.5 45.5 17.5C48.4003 17.5 50.75 19.8497 50.75 22.75C50.75 25.6503 48.4003 28 45.5 28C42.5997 28 40.25 25.6503 40.25 22.75Z" fill="#F3AC29" fill-opacity="0.2"/>
<path d="M28 40.25C28 37.3497 30.3497 35 33.25 35C36.1503 35 38.5 37.3497 38.5 40.25C38.5 43.1503 36.1503 45.5 33.25 45.5C30.3497 45.5 28 43.1503 28 40.25Z" fill="#F3AC29" fill-opacity="0.2"/>
<path d="M28 42C28.742 44.002 30.9913 45.5 33.25 45.5C36.1503 45.5 38.5 43.1503 38.5 40.25C38.5 37.3497 36.1503 35 33.25 35H8.75" stroke="#CCBAAB" stroke-width="1.4" stroke-linecap="round" stroke-linejoin="round"/>
<path d="M21 14C21.742 11.998 23.9913 10.5 26.25 10.5C29.1503 10.5 31.5 12.8497 31.5 15.75C31.5 18.6503 29.1503 21 26.25 21H5.25" stroke="#CCBAAB" stroke-width="1.4" stroke-linecap="round" stroke-linejoin="round"/>
<path d="M40.25 21C40.992 18.998 43.2413 17.5 45.5 17.5C48.4003 17.5 50.75 19.8497 50.75 22.75C50.75 25.6503 48.4003 28 45.5 28H7" stroke="#CCBAAB" stroke-width="1.4" stroke-linecap="round" stroke-linejoin="round"/>
</svg>
