<svg width="31" height="31" viewBox="0 0 31 31" fill="none" xmlns="http://www.w3.org/2000/svg">
<path d="M18.4062 5.8125C21.7232 6.68567 24.3143 9.27675 25.1875 12.5937" stroke="#E6391F" stroke-width="0.775" stroke-linecap="round" stroke-linejoin="round"/>
<path d="M17.4375 9.6875C19.4383 10.2222 20.7777 11.5617 21.3125 13.5625" stroke="#E6391F" stroke-width="0.775" stroke-linecap="round" stroke-linejoin="round"/>
<path d="M18.9384 18.568C19.211 18.3871 19.5558 18.3561 19.8568 18.4853L25.5673 21.0441C25.9625 21.212 26.2002 21.6215 26.1485 22.049C25.7597 24.9566 23.2771 27.1266 20.3438 27.1253C11.2478 27.1253 3.875 19.7511 3.875 10.6565C3.87242 7.72185 6.04371 5.24056 8.95125 4.85048C9.3775 4.8001 9.78696 5.03648 9.95617 5.43173L12.515 11.1474C12.6428 11.4457 12.6131 11.788 12.4349 12.0593L9.84767 15.136C9.66038 15.4189 9.63584 15.778 9.78179 16.0828C10.7828 18.1327 12.9025 20.2265 14.9588 21.2185C15.2649 21.3631 15.6253 21.336 15.9069 21.1461L18.9384 18.568Z" fill="#F3AC29" fill-opacity="0.1"/>
<path d="M18.9384 18.568C19.211 18.3871 19.5558 18.3561 19.8568 18.4853L25.5673 21.0441C25.9625 21.212 26.2002 21.6215 26.1485 22.049C25.7597 24.9566 23.2771 27.1266 20.3438 27.1253C11.2478 27.1253 3.875 19.7511 3.875 10.6565C3.87242 7.72185 6.04371 5.24056 8.95125 4.85048C9.3775 4.8001 9.78696 5.03648 9.95617 5.43173L12.515 11.1474C12.6428 11.4457 12.6131 11.788 12.4349 12.0593L9.84767 15.136C9.66038 15.4189 9.63584 15.778 9.78179 16.0828C10.7828 18.1327 12.9025 20.2265 14.9588 21.2185C15.2649 21.3631 15.6253 21.336 15.9069 21.1461L18.9384 18.568Z" stroke="#E6391F" stroke-width="0.775" stroke-linecap="round" stroke-linejoin="round"/>
</svg>
