<svg width="279" height="131" viewBox="0 0 279 131" fill="none" xmlns="http://www.w3.org/2000/svg">
<mask id="mask0_1_585" style="mask-type:luminance" maskUnits="userSpaceOnUse" x="1" y="0" width="277" height="131">
<path d="M277.627 0H1.37305V131H277.627V0Z" fill="white"/>
</mask>
<g mask="url(#mask0_1_585)">
<path d="M14.9481 113.014C17.6631 109.959 52.2797 84.1666 57.7098 81.4515C63.1398 78.7365 72.303 66.8583 75.3574 57.6951" stroke="#E6391F" stroke-width="1.35751" stroke-linecap="round" stroke-linejoin="round"/>
<path d="M80.1088 51.5863C85.1994 41.7443 85.9461 35.0049 115.065 29.8661C132.373 26.8116 153.075 34.278 153.075 34.278" stroke="#E6391F" stroke-width="1.35751" stroke-linecap="round" stroke-linejoin="round"/>
<path d="M153.754 34.2781C165.462 39.0287 170.617 40.2226 204.236 47.3441C231.471 53.1129 252.428 43.6958 252.428 43.6958" stroke="#E6391F" stroke-width="1.35751" stroke-linecap="round" stroke-linejoin="round"/>
<path d="M31.6115 113.563C32.5917 119.397 32.8659 119.002 40.1985 121.204C42.7818 121.978 45.0441 122.032 47.0526 122.071C50.7436 122.145 53.6134 121.656 54.0777 121.303C52.3265 119.811 50.4063 117.33 48.5709 114.459C47.0383 112.064 45.2932 109.621 43.0934 107.658C40.6281 105.457 38.5287 104.848 36.7551 105.087C33.4584 105.531 33.2596 105.857 31.5199 108.643" fill="#999D2E"/>
<path d="M45.8084 113.287C43.9032 110.783 41.8031 109.255 39.8944 107.954C37.345 106.215 35.0678 105.579 32.8849 105.354C29.7484 105.032 27.4433 105.732 26.1476 106.713" stroke="#E6391F" stroke-width="1.22176" stroke-linecap="round" stroke-linejoin="round"/>
<path d="M31.7229 109.684C32.703 115.517 32.8395 114.937 40.1721 117.138C42.7554 117.914 45.0815 119.047 47.0899 119.087C50.781 119.161 53.5008 117.821 53.9658 117.469C52.2139 115.976 50.6229 113.293 48.7875 110.423C47.2549 108.029 45.0713 105.956 42.8715 103.991C40.4062 101.79 38.4372 100.839 36.6642 101.078C33.3675 101.524 33.563 102.253 31.824 105.04" stroke="#E6391F" stroke-width="1.22176" stroke-linecap="round" stroke-linejoin="round"/>
<path d="M25.5951 93.9448C18.2883 95.8779 18.6446 95.3091 13.0673 87.0711C11.1023 84.168 10.1242 81.2826 9.26285 78.7169C7.67999 74.0037 7.09762 70.0404 7.32704 69.2483C9.80382 70.6866 13.522 71.8004 17.6652 72.5918C21.1234 73.2536 24.7256 74.1625 27.9429 75.9198C31.5478 77.8902 33.1198 80.2604 33.5555 82.6755C34.3633 87.1654 34.0578 87.5985 31.4616 91.3662" fill="#999D2E"/>
<path d="M20.1719 75.5076C23.9111 76.5895 26.5725 78.4568 28.8871 80.2025C31.9795 82.5334 33.6547 85.1181 34.8045 87.806C36.458 91.6694 36.5618 95.0218 35.9238 97.2291" stroke="#E6391F" stroke-width="1.22176" stroke-linecap="round" stroke-linejoin="round"/>
<path d="M30.1455 91.6749C22.8387 93.608 23.4686 93.1145 17.8912 84.8758C15.9262 81.9741 13.6422 79.5998 12.7809 77.0355C11.1987 72.3202 11.6854 68.0834 11.9155 67.2913C14.3916 68.7302 18.2164 69.3092 22.3595 70.1013C25.8177 70.7617 29.1572 72.4389 32.3759 74.1956C35.9808 76.1653 37.905 78.1805 38.3388 80.5962C39.1478 85.0855 38.2044 85.2335 35.6074 89.0006" stroke="#E6391F" stroke-width="1.22176" stroke-linecap="round" stroke-linejoin="round"/>
<path d="M56.7792 99.379C57.1335 107.615 57.6039 107.075 67.8511 110.506C71.462 111.715 74.7384 111.893 77.6482 112.043C82.9975 112.317 87.2553 111.765 87.9952 111.291C85.7247 109.115 83.3912 105.539 81.2511 101.424C79.4646 97.9896 77.3781 94.4763 74.5429 91.6153C71.365 88.4116 68.4273 87.4586 65.8066 87.7118C60.9366 88.1829 60.5884 88.6315 57.5502 92.4638" fill="#999D2E"/>
<path d="M77.4528 99.6491C75.145 96.0435 72.375 93.8002 69.8412 91.8841C66.4569 89.3231 63.2647 88.3247 60.1356 87.9079C55.6382 87.3093 52.1609 88.1842 50.0989 89.5037" stroke="#E6391F" stroke-width="1.22176" stroke-linecap="round" stroke-linejoin="round"/>
<path d="M57.6542 93.9352C58.0078 102.172 58.3126 101.365 68.5598 104.797C72.1707 106.005 75.3412 107.705 78.251 107.856C83.5996 108.13 87.7964 106.374 88.5362 105.9C86.2658 103.725 84.4467 99.8804 82.3073 95.7644C80.5208 92.3306 77.7291 89.3183 74.8939 86.4566C71.7167 83.2522 69.0308 81.8241 66.4108 82.0786C61.5407 82.5504 61.6907 83.5834 58.6526 87.4164" stroke="#E6391F" stroke-width="1.22176" stroke-linecap="round" stroke-linejoin="round"/>
<path d="M46.0297 77.0017C41.3633 78.2357 41.5907 77.8719 38.0292 72.6108C36.7742 70.7578 36.1491 68.915 35.5993 67.2765C34.5886 64.2662 34.2167 61.7344 34.3633 61.2288C35.9448 62.1478 38.3197 62.8585 40.9662 63.3641C43.1742 63.787 45.4745 64.3673 47.5291 65.49C49.8315 66.7484 50.8367 68.2614 51.1143 69.8042C51.6302 72.6719 51.4354 72.9482 49.7772 75.3544" fill="#999D2E"/>
<path d="M42.5668 65.2266C44.9553 65.9175 46.6542 67.1101 48.1326 68.2246C50.1071 69.7138 51.1782 71.3639 51.9119 73.0811C52.968 75.5484 53.0346 77.6899 52.6266 79.099" stroke="#E6391F" stroke-width="1.22176" stroke-linecap="round" stroke-linejoin="round"/>
<path d="M48.9368 75.5517C44.2704 76.7857 44.6729 76.4721 41.1108 71.2111C39.8564 69.3567 38.3971 67.841 37.8473 66.2025C36.8366 63.1916 37.1468 60.4847 37.2941 59.979C38.8756 60.898 41.3178 61.2673 43.9643 61.773C46.1729 62.1958 48.3056 63.2676 50.3616 64.3896C52.6639 65.6473 53.8931 66.9342 54.1701 68.4757C54.6866 71.3441 54.0839 71.4378 52.4256 73.844" stroke="#E6391F" stroke-width="1.22176" stroke-linecap="round" stroke-linejoin="round"/>
<path d="M78.384 79.0338C83.1767 85.0076 83.229 84.3302 92.735 80.971C96.0839 79.7873 98.6184 78.0239 100.864 76.4505C104.991 73.561 107.852 70.6811 108.141 69.8971C105.257 69.5794 101.555 68.247 97.7014 66.3995C94.4841 64.8573 91.0001 63.4306 87.3198 62.927C83.195 62.3629 80.4868 63.3485 78.6779 65.0555C75.3167 68.2287 75.3045 68.7663 75.1538 73.4008" fill="#999D2E"/>
<path d="M93.9017 67.2682C90.2025 65.8992 86.9099 65.8204 83.9715 65.8496C80.0483 65.889 77.1256 66.9879 74.5708 68.4866C70.8973 70.6416 68.7945 73.3112 67.9868 75.4941" stroke="#E6391F" stroke-width="1.22176" stroke-linecap="round" stroke-linejoin="round"/>
<path d="M76.0396 74.4448C80.833 80.4185 80.6158 79.638 90.1211 76.2781C93.4701 75.095 96.762 74.5351 99.0074 72.9624C103.135 70.0723 105.289 66.3248 105.578 65.5409C102.694 65.2232 99.2273 63.3926 95.3733 61.5444C92.156 60.0022 88.4242 59.3588 84.7426 58.8538C80.6178 58.2897 77.8356 58.7737 76.0287 60.4814C72.6669 63.6546 73.347 64.3429 73.1963 68.9767" stroke="#E6391F" stroke-width="1.22176" stroke-linecap="round" stroke-linejoin="round"/>
<path d="M59.4542 58.1891C51.7964 58.316 52.2838 57.843 48.7977 48.3831C47.5691 45.0504 47.3071 41.9743 47.0825 39.2416C46.6705 34.2202 47.0594 30.1789 47.4782 29.4553C49.5647 31.4726 52.953 33.4708 56.8376 35.2553C60.0786 36.7458 63.4025 38.5154 66.1413 41.0254C69.2099 43.8389 70.1812 46.5518 70.0224 49.0341C69.7278 53.6476 69.3219 54.0005 65.8521 57.076" fill="#999D2E"/>
<path d="M58.5975 38.7327C62.0137 40.7045 64.1776 43.1887 66.0306 45.468C68.5067 48.5122 69.5282 51.4627 70.0081 54.3861C70.695 58.5883 69.9837 61.9122 68.8203 63.9281" stroke="#E6391F" stroke-width="1.22176" stroke-linecap="round" stroke-linejoin="round"/>
<path d="M64.4831 57.0604C56.8253 57.1874 57.5652 56.8561 54.0784 47.397C52.8499 44.0636 51.1788 41.1735 50.9548 38.4408C50.5428 33.4187 52.0503 29.3678 52.4684 28.6443C54.5556 30.6616 58.1774 32.1589 62.0619 33.9447C65.303 35.4352 68.1816 37.8964 70.9211 40.4058C73.9897 43.2192 75.3948 45.6695 75.2346 48.1504C74.94 52.7639 73.9761 52.6797 70.507 55.7559" stroke="#E6391F" stroke-width="1.22176" stroke-linecap="round" stroke-linejoin="round"/>
<path d="M80.7821 39.7324C77.4087 39.4005 77.6476 39.2172 76.5935 34.882C76.2222 33.3548 76.2629 31.9891 76.3023 30.7762C76.3756 28.5471 76.7503 26.7905 76.9709 26.4939C77.7867 27.4862 79.1748 28.5356 80.7923 29.5178C82.1416 30.337 83.5134 31.2832 84.5899 32.5253C85.7967 33.9175 86.0866 35.1596 85.8917 36.2429C85.5286 38.2561 85.3311 38.3905 83.6505 39.5667" fill="#999D2E"/>
<path d="M81.3895 31.1353C82.7912 32.1751 83.6172 33.3765 84.3163 34.4727C85.251 35.9361 85.5503 37.2855 85.6127 38.5948C85.7023 40.477 85.2218 41.9024 84.6075 42.7298" stroke="#E6391F" stroke-width="1.22176" stroke-linecap="round" stroke-linejoin="round"/>
<path d="M83.0491 39.4901C79.6764 39.1582 80.0185 39.051 78.9644 34.7158C78.5931 33.1879 78.0046 31.8317 78.0447 30.6195C78.118 28.3904 78.9854 26.6868 79.206 26.3901C80.0219 27.3825 81.5382 28.2235 83.1557 29.2049C84.5051 30.0242 85.6461 31.2527 86.7232 32.4949C87.9301 33.887 88.4235 35.0355 88.2274 36.1181C87.8642 38.1319 87.4448 38.0457 85.7642 39.222" stroke="#E6391F" stroke-width="1.22176" stroke-linecap="round" stroke-linejoin="round"/>
<path d="M104.171 55.9044C108.469 62.9397 108.618 62.2386 119.245 60.279C122.99 59.588 125.944 58.1579 128.562 56.8791C133.375 54.5299 136.833 51.9853 137.251 51.2122C134.21 50.4078 130.437 48.4089 126.572 45.8439C123.346 43.7038 119.819 41.6403 115.954 40.5109C111.622 39.2457 108.589 39.8342 106.419 41.3247C102.386 44.0954 102.299 44.6561 101.496 49.4807" fill="#999D2E"/>
<path d="M122.39 46.1305C118.624 44.0928 115.114 43.4718 111.968 43.0224C107.768 42.4211 104.492 43.0917 101.552 44.2422C97.3268 45.8956 94.7088 48.3466 93.5427 50.4989" stroke="#E6391F" stroke-width="1.22176" stroke-linecap="round" stroke-linejoin="round"/>
<path d="M102.3 50.7189C106.598 57.7542 106.474 56.901 117.101 54.9414C120.846 54.2511 124.442 54.2029 127.06 52.9248C131.873 50.5757 134.696 47.0074 135.113 46.2343C132.073 45.43 128.62 42.9471 124.755 40.3828C121.529 38.2427 117.628 36.9591 113.762 35.8283C109.43 34.5624 106.389 34.614 104.22 36.1053C100.187 38.8759 100.818 39.7067 100.016 44.5313" stroke="#E6391F" stroke-width="1.22176" stroke-linecap="round" stroke-linejoin="round"/>
<path d="M97.1007 28.463C90.8242 27.8454 91.2681 27.5053 89.3072 19.4383C88.6162 16.5956 88.6916 14.0544 88.7656 11.7982C88.902 7.65031 89.6004 4.38142 90.0111 3.82959C91.5288 5.67581 94.1121 7.62927 97.1211 9.4558C99.6325 10.9803 102.185 12.741 104.188 15.0528C106.434 17.6436 106.973 19.9548 106.609 21.97C105.933 25.7168 105.568 25.9672 102.44 28.1562" fill="#999D2E"/>
<path d="M98.2322 12.4661C100.452 14.11 101.707 16.0804 102.764 17.8819C104.175 20.2881 104.549 22.5571 104.535 24.7787C104.515 27.9723 103.595 30.4395 102.508 31.9016" stroke="#E6391F" stroke-width="1.22176" stroke-linecap="round" stroke-linejoin="round"/>
<path d="M101.32 28.0137C95.0427 27.396 95.6794 27.1951 93.7184 19.1281C93.0275 16.2862 91.9326 13.7632 92.0066 11.507C92.143 7.35916 93.7578 4.18801 94.1685 3.6355C95.6855 5.48239 98.5077 7.04896 101.517 8.8755C104.028 10.4 106.151 12.6847 108.156 14.9958C110.402 17.5873 111.319 19.7234 110.955 21.7386C110.279 25.4847 109.499 25.3252 106.37 27.5148" stroke="#E6391F" stroke-width="1.22176" stroke-linecap="round" stroke-linejoin="round"/>
<path d="M130.428 27.0323C135.792 29.522 135.622 29.0733 141.584 24.2711C143.685 22.579 145.008 20.7429 146.177 19.1099C148.325 16.107 149.545 13.4646 149.517 12.8816C147.297 13.483 144.163 13.6622 140.758 13.5529C137.916 13.4619 134.914 13.5189 132.051 14.2221C128.841 15.0115 127.152 16.3982 126.346 17.996C124.848 20.9656 125.004 21.3138 126.318 24.3241" fill="#999D2E"/>
<path d="M138.229 15.1682C135.085 15.323 132.638 16.1904 130.485 17.0287C127.61 18.1473 125.797 19.6663 124.377 21.3388C122.337 23.7429 121.61 26.0399 121.687 27.6641" stroke="#E6391F" stroke-width="1.22176" stroke-linecap="round" stroke-linejoin="round"/>
<path d="M127.291 24.7455C132.656 27.2358 132.256 26.7967 138.218 21.9945C140.319 20.3023 142.567 19.0249 143.737 17.3918C145.886 14.389 146.319 11.3882 146.29 10.8052C144.07 11.4066 140.955 11.2009 137.551 11.0916C134.71 11.0007 131.766 11.6292 128.901 12.3317C125.692 13.1211 123.794 14.2057 122.989 15.8035C121.491 18.7738 122.203 19.0249 123.517 22.0352" stroke="#E6391F" stroke-width="1.22176" stroke-linecap="round" stroke-linejoin="round"/>
<path d="M150.767 45.6839C153.626 53.4163 153.908 52.7572 164.715 52.8861C168.522 52.9316 171.695 52.0988 174.512 51.3508C179.688 49.9743 183.571 48.145 184.13 47.467C181.303 46.0911 177.987 43.4005 174.689 40.1384C171.937 37.4152 168.875 34.7111 165.3 32.856C161.294 30.7784 158.205 30.7702 155.789 31.8135C151.296 33.7534 151.103 34.2869 149.383 38.8658" fill="#999D2E"/>
<path d="M170.531 39.6122C167.228 36.8856 163.905 35.5987 160.905 34.5507C156.9 33.1504 153.556 33.1762 150.45 33.7376C145.985 34.5439 142.943 36.4424 141.383 38.3293" stroke="#E6391F" stroke-width="1.22176" stroke-linecap="round" stroke-linejoin="round"/>
<path d="M149.932 40.2346C152.791 47.967 152.834 47.1064 163.64 47.2347C167.448 47.2801 170.986 47.9277 173.802 47.1797C178.978 45.8038 182.436 42.8472 182.995 42.1698C180.167 40.7933 177.259 37.6907 173.962 34.4279C171.209 31.7054 167.629 29.6929 164.054 27.8365C160.048 25.7588 157.054 25.2219 154.638 26.2665C150.145 28.2064 150.606 29.1438 148.886 33.7227" stroke="#E6391F" stroke-width="1.22176" stroke-linecap="round" stroke-linejoin="round"/>
<path d="M180.575 36.4792C185.011 40.3902 184.975 39.9117 192.055 37.0005C194.55 35.9742 196.34 34.5895 197.925 33.3549C200.838 31.0858 202.757 28.8982 202.896 28.3314C200.595 28.2771 197.541 27.559 194.307 26.4872C191.609 25.5933 188.713 24.7958 185.767 24.6573C182.467 24.5025 180.452 25.3523 179.226 26.6556C176.946 29.078 176.998 29.4561 177.403 32.7155" fill="#999D2E"/>
<path d="M191.425 27.3188C188.366 26.5742 185.773 26.7113 183.47 26.9034C180.396 27.1606 178.226 28.1014 176.39 29.3021C173.751 31.0282 172.403 33.0251 172.015 34.6039" stroke="#E6391F" stroke-width="1.22176" stroke-linecap="round" stroke-linejoin="round"/>
<path d="M178.219 33.3977C182.655 37.3087 182.396 36.7732 189.477 33.8613C191.971 32.8357 194.491 32.2506 196.076 31.016C198.988 28.7469 200.255 25.9925 200.394 25.4257C198.094 25.3714 195.167 24.2895 191.933 23.2177C189.234 22.3238 186.233 22.091 183.287 21.9512C179.986 21.7964 177.857 22.2987 176.632 23.6019C174.353 26.0251 174.964 26.4676 175.37 29.7277" stroke="#E6391F" stroke-width="1.22176" stroke-linecap="round" stroke-linejoin="round"/>
<path d="M193.684 57.2721C192.381 65.1817 192.9 64.8023 201.226 70.9593C204.16 73.1286 207.002 74.2261 209.528 75.1927C214.171 76.969 218.019 77.6504 218.761 77.4102C217.193 74.7033 215.844 70.6525 214.773 66.1448C213.877 62.3818 212.732 58.46 210.804 54.9454C208.641 51.0065 206.249 49.2703 203.898 48.7687C199.529 47.8354 199.136 48.1619 195.717 50.9346" fill="#999D2E"/>
<path d="M211.785 63.3864C210.465 59.3132 208.472 56.4013 206.623 53.8668C204.153 50.4805 201.546 48.6289 198.88 47.3474C195.048 45.5052 191.823 45.3505 189.753 46.0163" stroke="#E6391F" stroke-width="1.22176" stroke-linecap="round" stroke-linejoin="round"/>
<path d="M195.519 52.3586C194.215 60.2681 194.64 59.59 202.967 65.747C205.901 67.9157 208.351 70.425 210.877 71.3916C215.52 73.1679 219.549 72.6921 220.292 72.4525C218.724 69.7456 217.881 65.5868 216.809 61.0785C215.914 57.3162 214.051 53.6686 212.123 50.1526C209.96 46.2138 207.883 44.1001 205.532 43.5992C201.162 42.6659 201.092 43.6874 197.673 46.4608" stroke="#E6391F" stroke-width="1.22176" stroke-linecap="round" stroke-linejoin="round"/>
<path d="M207.28 46.9028C211.684 49.8215 211.59 49.3918 217.412 45.7442C219.463 44.4586 220.849 42.9484 222.075 41.6031C224.328 39.1304 225.723 36.8728 225.769 36.3387C223.747 36.6163 220.973 36.3991 217.997 35.8859C215.513 35.4583 212.87 35.1454 210.27 35.4379C207.356 35.7665 205.703 36.8233 204.8 38.1801C203.122 40.7024 203.218 41.0377 204.003 43.938" fill="#999D2E"/>
<path d="M215.58 37.0486C212.802 36.8076 210.545 37.3011 208.553 37.802C205.893 38.4719 204.114 39.6346 202.664 40.9847C200.578 42.9259 199.659 44.9276 199.529 46.4154" stroke="#E6391F" stroke-width="1.22176" stroke-linecap="round" stroke-linejoin="round"/>
<path d="M204.805 44.4403C209.21 47.359 208.913 46.9103 214.735 43.2627C216.786 41.9778 218.917 41.0886 220.144 39.7434C222.397 37.2706 223.144 34.5916 223.19 34.0574C221.167 34.335 218.459 33.7689 215.483 33.2558C212.999 32.8282 210.337 33.0433 207.736 33.3345C204.822 33.6631 203.022 34.4212 202.12 35.7781C200.441 38.3003 201.037 38.6153 201.823 41.5149" stroke="#E6391F" stroke-width="1.22176" stroke-linecap="round" stroke-linejoin="round"/>
<path d="M224.509 53.1819C224.693 56.5662 224.887 56.3354 229.173 57.5762C230.683 58.0133 232.049 58.0323 233.262 58.0452C235.492 58.0683 237.263 57.769 237.569 57.5619C236.613 56.704 235.625 55.2711 234.714 53.6129C233.954 52.2296 233.067 50.8185 231.874 49.6891C230.535 48.4232 229.306 48.0797 228.216 48.2284C226.189 48.5033 226.045 48.694 224.798 50.323" fill="#999D2E"/>
<path d="M233.124 52.9471C232.146 51.5013 230.982 50.6244 229.916 49.8784C228.496 48.8813 227.161 48.5229 225.855 48.4042C223.978 48.2331 222.533 48.6512 221.68 49.2288" stroke="#E6391F" stroke-width="1.22176" stroke-linecap="round" stroke-linejoin="round"/>
<path d="M224.848 50.9265C225.033 54.3108 225.156 53.9742 229.442 55.2143C230.952 55.6514 232.281 56.2982 233.494 56.3111C235.723 56.3342 237.464 55.5414 237.77 55.3337C236.814 54.4758 236.038 52.9241 235.129 51.2659C234.368 49.8826 233.191 48.6894 231.997 47.5592C230.658 46.2934 229.532 45.751 228.442 45.8997C226.415 46.1753 226.482 46.5981 225.233 48.2265" stroke="#E6391F" stroke-width="1.22176" stroke-linecap="round" stroke-linejoin="round"/>
<path d="M232.624 47.5605C235.525 49.3117 235.443 49.0219 238.881 46.1779C240.093 45.1753 240.877 44.0568 241.571 43.0617C242.845 41.2311 243.595 39.5987 243.595 39.2288C242.348 39.5369 240.607 39.5478 238.724 39.3672C237.153 39.2165 235.488 39.1548 233.882 39.5064C232.082 39.9001 231.107 40.7227 230.616 41.7076C229.703 43.5382 229.78 43.7635 230.423 45.7116" fill="#999D2E"/>
<path d="M237.277 40.3059C235.533 40.3012 234.152 40.7709 232.936 41.2311C231.312 41.8454 230.265 42.7468 229.432 43.7588C228.234 45.214 227.767 46.6435 227.764 47.6732" stroke="#E6391F" stroke-width="1.22176" stroke-linecap="round" stroke-linejoin="round"/>
<path d="M230.951 46.0109C233.852 47.7628 233.644 47.4709 237.081 44.6262C238.292 43.6244 239.573 42.89 240.267 41.8949C241.541 40.0643 241.867 38.1794 241.867 37.8095C240.619 38.1176 238.901 37.8848 237.018 37.7043C235.446 37.5543 233.796 37.8556 232.19 38.2065C230.391 38.6009 229.31 39.226 228.818 40.2109C227.906 42.0415 228.292 42.2241 228.936 44.1721" stroke="#E6391F" stroke-width="1.22176" stroke-linecap="round" stroke-linejoin="round"/>
<path d="M248.502 52.5352C250.737 57.689 250.902 57.2519 258.204 57.3754C260.777 57.4189 262.888 56.8766 264.76 56.3878C268.201 55.4905 270.752 54.2878 271.103 53.8384C269.139 52.9133 266.794 51.1112 264.439 48.9297C262.474 47.1086 260.3 45.2976 257.813 44.0515C255.026 42.6552 252.939 42.639 251.348 43.3252C248.391 44.5999 248.281 44.9542 247.3 47.9937" fill="#999D2E"/>
<path d="M261.61 48.5657C259.57 46.9733 258.032 46.1174 256.246 45.4774C253.861 44.6221 252.25 44.8712 250.477 45.138C247.928 45.5215 247.083 46.4955 244.028 47.1742" stroke="#E6391F" stroke-width="1.22176" stroke-linecap="round" stroke-linejoin="round"/>
<path d="M247.725 48.908C249.959 54.0624 249.954 53.4903 257.257 53.6138C259.83 53.6572 262.244 54.1005 264.116 53.6124C267.558 52.7151 269.776 50.7603 270.128 50.311C268.164 49.3858 266.079 47.3109 263.723 45.1293C261.758 43.3082 259.261 41.9575 256.774 40.71C253.987 39.3137 251.944 38.9459 250.354 39.6321C247.396 40.9068 247.743 41.5319 246.762 44.5721" stroke="#E6391F" stroke-width="1.22176" stroke-linecap="round" stroke-linejoin="round"/>
</g>
</svg>
